Coordinates
version=1
nRows=11
nColumns=40
inDegrees=yes

Units are S.I. units (second, meters, Newtons, ...)
Angles are in degrees.

endheader
time	pelvis_tilt	pelvis_list	pelvis_rotation	pelvis_tx	pelvis_ty	pelvis_tz	hip_flexion_r	hip_adduction_r	hip_rotation_r	knee_angle_r	knee_angle_r_beta	ankle_angle_r	subtalar_angle_r	mtp_angle_r	hip_flexion_l	hip_adduction_l	hip_rotation_l	knee_angle_l	knee_angle_l_beta	ankle_angle_l	subtalar_angle_l	mtp_angle_l	lumbar_extension	lumbar_bending	lumbar_rotation	arm_flex_r	arm_add_r	arm_rot_r	elbow_flex_r	pro_sup_r	wrist_flex_r	wrist_dev_r	arm_flex_l	arm_add_l	arm_rot_l	elbow_flex_l	pro_sup_l	wrist_flex_l	wrist_dev_l
     36.34500000	     -3.81705775	     -4.29864258	     -7.32422024	      0.94414377	      0.92924419	      0.49072812	     16.81432597	      2.52486849	     -7.82484951	     19.19355492	     19.19355492	      7.86026610	      1.95158202	     -3.63910209	     -1.29141294	     -9.13279619	     -9.78166468	     25.45037088	     25.45037088	     17.12265667	     -5.51500014	     -4.37255731	     -6.59637807	      7.00820337	      1.24996522	     -3.17787381	    -13.64929940	    -16.19981167	     28.40341235	     46.67179639	      0.00000000	      0.00000000	     16.25870173	    -14.90248130	    -14.88885068	     76.65067604	     47.97578376	      0.00000000	      0.00000000
     36.36285714	     -3.57365174	     -4.25439676	     -6.79911466	      0.94550663	      0.93002915	      0.49432691	     16.03267119	      2.53427579	     -8.31108648	     19.18677164	     19.18677164	      8.58139526	      2.20940262	     -3.06468831	     -0.18711455	     -9.60830240	     -8.83970269	     28.39489147	     28.39489147	     14.91984145	     -7.23541189	     -7.68844054	     -6.61021072	      6.89690941	      1.49775068	     -2.41462831	    -14.01424697	    -15.54388644	     29.54188914	     46.55939212	      0.00000000	      0.00000000	     16.10683772	    -14.55331940	    -13.37774772	     74.55626030	     47.84004327	      0.00000000	      0.00000000
     36.38071429	     -3.28305873	     -4.27884572	     -6.24037863	      0.94649948	      0.93062463	      0.49777031	     15.21160346	      2.63356378	     -8.76533256	     19.15639871	     19.15639871	      9.06980763	      2.20435686	     -3.17125988	      1.28542269	    -10.24099163	     -8.00042231	     32.12416886	     32.12416886	     13.78167887	     -8.21822603	     -8.26331291	     -6.77774478	      6.83071997	      1.31175495	     -0.94627492	    -14.26863881	    -15.46186873	     30.18904026	     46.53685011	      0.00000000	      0.00000000	     15.38375004	    -14.17937887	    -12.81724527	     73.38831115	     47.77683748	      0.00000000	      0.00000000
     36.39857143	     -3.12295834	     -4.17196467	     -5.65882948	      0.94702155	      0.93076065	      0.50078816	     14.73902282	      2.55322656	     -9.23345447	     19.43836333	     19.43836333	      9.67244134	      2.19022929	     -3.18506919	      3.13505853	    -10.58193565	     -6.82464089	     36.00313543	     36.00313543	     12.10734107	    -10.10940110	     -9.17773073	     -6.69147174	      6.70439448	      1.27324609	      0.52144785	    -14.61450702	    -14.73925388	     30.67372057	     46.46918520	      0.00000000	      0.00000000	     15.22134932	    -14.01301746	    -11.08012591	     69.93187305	     47.59965131	      0.00000000	      0.00000000
     36.41642857	     -2.92574672	     -4.22150791	     -5.04158697	      0.94719415	      0.93064528	      0.50361980	     14.20996634	      2.66059621	     -9.65300007	     19.65541605	     19.65541605	     10.18397955	      1.96367815	     -3.28117096	      5.16991650	    -11.12651991	     -5.79518176	     40.17272683	     40.17272683	     10.76393434	    -11.55977428	     -9.25419348	     -6.80573273	      6.70521077	      1.13765443	      2.12585596	    -14.88095035	    -14.52698503	     31.36689404	     46.43616950	      0.00000000	      0.00000000	     14.45535943	    -13.57370899	    -10.21079523	     68.07949045	     47.50306274	      0.00000000	      0.00000000
     36.43428571	     -2.69468762	     -4.16403999	     -4.43231105	      0.94700967	      0.93032653	      0.50607618	     13.85520687	      2.62250934	     -9.97431268	     20.21461887	     20.21461887	     10.79639026	      1.54274964	     -3.35647736	      7.26653318	    -11.37465212	     -4.63391902	     44.27213391	     44.27213391	      9.55055963	    -13.45100698	     -8.28988643	     -6.94210712	      6.63123996	      1.00926204	      3.97102539	    -15.14308530	    -14.06751511	     31.97319726	     46.39085787	      0.00000000	      0.00000000	     14.02427526	    -13.25059292	     -8.89043212	     64.90566361	     47.35587135	      0.00000000	      0.00000000
     36.45214286	     -2.32545408	     -4.33521312	     -3.81423391	      0.94662375	      0.92993360	      0.50841411	     13.30659654	      2.83098574	    -10.31192805	     20.68640438	     20.68640438	     11.37432367	      1.17358262	     -3.48546141	      9.23980654	    -11.92985991	     -3.72571516	     48.22479542	     48.22479542	      8.46775277	    -14.94483194	     -7.49156796	     -7.37790341	      6.76055705	      1.12609971	      5.74181854	    -15.49515202	    -13.88842219	     32.58228652	     46.36684981	      0.00000000	      0.00000000	     13.23526358	    -12.60710862	     -8.06424410	     62.95653574	     47.25927587	      0.00000000	      0.00000000
     36.47000000	     -2.11188820	     -4.22771719	     -3.23996099	      0.94582970	      0.92921959	      0.51032252	     13.19871339	      2.71377193	    -10.51941490	     21.60237009	     21.60237009	     12.29052651	      0.61414920	     -2.77226973	     11.62068404	    -12.00190290	     -2.74119149	     52.40832202	     52.40832202	     10.06917904	    -15.47120589	      0.00418354	     -7.46920355	      6.68643768	      1.85314848	      7.04833327	    -16.11040336	    -12.78118085	     33.41969162	     46.25120633	      0.00000000	      0.00000000	     14.01929872	    -12.11302221	     -4.92582395	     56.88891506	     46.94717344	      0.00000000	      0.00000000
     36.48785714	     -1.86963641	     -4.24421074	     -2.67675875	      0.94487929	      0.92824264	      0.51218191	     13.06607593	      2.76847595	    -10.61165853	     22.48337555	     22.48337555	     12.90073526	     -0.23746406	     -2.88302677	     13.68608017	    -12.26888291	     -2.02578502	     55.63793136	     55.63793136	      9.51444083	    -17.06432555	      1.66043229	     -7.72510444	      6.67508754	      1.56184275	      9.34003292	    -16.18208072	    -12.65479192	     34.15102074	     46.22759763	      0.00000000	      0.00000000	     12.91990864	    -11.72583245	     -4.26417722	     54.10824895	     46.85108158	      0.00000000	      0.00000000
     36.50571429	     -1.45229438	     -4.41572868	     -2.14134119	      0.94386361	      0.92733550	      0.51395399	     12.68253141	      2.97512516	    -10.79688057	     23.24721616	     23.24721616	     13.47466742	     -0.83219057	     -3.04883948	     15.42537371	    -12.86433703	     -1.64595137	     58.33488580	     58.33488580	      9.23013528	    -18.15930425	      2.62015121	     -8.26960966	      6.82196846	      1.78553017	     11.39365602	    -16.52558916	    -12.63248928	     34.84036188	     46.21340701	      0.00000000	      0.00000000	     11.75623311	    -11.00105354	     -3.75459139	     52.40103819	     46.77738833	      0.00000000	      0.00000000
     36.52357143	     -1.32064702	     -4.34576267	     -1.62551390	      0.94243252	      0.92606792	      0.51542016	     12.80694189	      2.98622289	    -10.60623556	     24.30148583	     24.30148583	     14.29569725	     -2.03059761	     -2.34102167	     17.69737097	    -12.94619957	     -0.98321761	     61.07560421	     61.07560421	     11.92429749	    -18.38600912	     11.08216527	     -8.30688469	      6.71762772	      2.05163942	     13.78650075	    -16.75586021	    -12.05744896	     34.55209340	     46.19970439	      0.00000000	      0.00000000	     12.09637802	    -10.25569102	     -2.31182281	     45.75233995	     46.58594913	      0.00000000	      0.00000000
